<svg width="123" height="60" viewBox="0 0 123 60" fill="none" xmlns="http://www.w3.org/2000/svg">
<path d="M51.9751 38.579H50.7242C50.6503 38.2192 50.5208 37.9032 50.3359 37.6308C50.1543 37.3584 49.9324 37.1298 49.6701 36.9448C49.4112 36.7565 49.1237 36.6153 48.8076 36.5212C48.4915 36.427 48.162 36.3799 47.819 36.3799C47.1936 36.3799 46.627 36.538 46.1193 36.8541C45.6149 37.1701 45.2131 37.6358 44.9138 38.2512C44.6179 38.8665 44.47 39.6214 44.47 40.5158C44.47 41.4103 44.6179 42.1652 44.9138 42.7805C45.2131 43.3958 45.6149 43.8615 46.1193 44.1776C46.627 44.4937 47.1936 44.6517 47.819 44.6517C48.162 44.6517 48.4915 44.6047 48.8076 44.5105C49.1237 44.4164 49.4112 44.2768 49.6701 44.0919C49.9324 43.9036 50.1543 43.6732 50.3359 43.4009C50.5208 43.1252 50.6503 42.8091 50.7242 42.4526H51.9751C51.881 42.9806 51.7095 43.453 51.4606 43.8699C51.2118 44.2869 50.9025 44.6416 50.5326 44.9342C50.1627 45.2234 49.7474 45.4436 49.2868 45.5949C48.8295 45.7462 48.3402 45.8219 47.819 45.8219C46.9381 45.8219 46.1546 45.6067 45.4686 45.1763C44.7827 44.7459 44.243 44.1339 43.8496 43.3404C43.4562 42.5468 43.2595 41.6053 43.2595 40.5158C43.2595 39.4264 43.4562 38.4849 43.8496 37.6913C44.243 36.8978 44.7827 36.2858 45.4686 35.8554C46.1546 35.425 46.9381 35.2098 47.819 35.2098C48.3402 35.2098 48.8295 35.2854 49.2868 35.4368C49.7474 35.5881 50.1627 35.81 50.5326 36.1025C50.9025 36.3917 51.2118 36.7448 51.4606 37.1617C51.7095 37.5753 51.881 38.0478 51.9751 38.579ZM54.4201 45.6807H53.1087L56.9016 35.351H58.1928L61.9857 45.6807H60.6744L57.5876 36.9852H57.5069L54.4201 45.6807ZM54.9043 41.6456H60.1902V42.7553H54.9043V41.6456ZM66.7824 45.6807H63.5947V35.351H66.9236C67.9256 35.351 68.7831 35.5578 69.4959 35.9714C70.2088 36.3816 70.7552 36.9717 71.1351 37.7418C71.5151 38.5084 71.7051 39.4264 71.7051 40.4957C71.7051 41.5717 71.5134 42.498 71.1301 43.2748C70.7468 44.0482 70.1886 44.6433 69.4556 45.0603C68.7225 45.4739 67.8315 45.6807 66.7824 45.6807ZM64.8456 44.571H66.7017C67.5557 44.571 68.2636 44.4063 68.8251 44.0767C69.3866 43.7472 69.8053 43.2781 70.081 42.6695C70.3567 42.0609 70.4946 41.3363 70.4946 40.4957C70.4946 39.6618 70.3584 38.9439 70.086 38.342C69.8137 37.7367 69.4068 37.2727 68.8654 36.9499C68.3241 36.6237 67.6499 36.4606 66.8429 36.4606H64.8456V44.571ZM73.8033 45.6807V35.351H80.0374V36.4606H75.0542V39.9509H79.7146V41.0606H75.0542V44.571H80.1181V45.6807H73.8033ZM82.292 35.351H83.7849L87.2954 43.9254H87.4164L90.9269 35.351H92.4199V45.6807H91.2497V37.8326H91.1488L87.9208 45.6807H86.791L83.563 37.8326H83.4621V45.6807H82.292V35.351ZM94.0402 35.351H95.4726L98.3375 40.1729H98.4585L101.323 35.351H102.756L99.0234 41.4237V45.6807H97.7726V41.4237L94.0402 35.351Z" fill="#003333"/>
<path fill-rule="evenodd" clip-rule="evenodd" d="M16.2361 18.1668L14.0006 20.2896C12.4804 18.6878 10.7736 17.8869 8.87238 17.8869C7.27053 17.8869 5.91839 18.4361 4.82112 19.5276C3.72185 20.621 3.17263 21.9653 3.17263 23.5672C3.17263 24.683 3.41846 25.6741 3.90354 26.5376C4.3903 27.4041 5.07735 28.0858 5.96418 28.5787C6.85392 29.0732 7.84203 29.3174 8.93064 29.3174C9.85598 29.3174 10.7033 29.1455 11.4695 28.8003C12.2389 28.4537 13.083 27.8245 14.0006 26.9146L16.1661 29.1775C14.9298 30.3866 13.7587 31.2249 12.6592 31.6929C11.5583 32.1616 10.2993 32.3967 8.88789 32.3967C6.283 32.3967 4.14937 31.5714 2.48835 29.9201C0.829276 28.2707 6.10352e-05 26.1526 6.10352e-05 23.5749C6.10352e-05 21.9031 0.378756 20.4226 1.13537 19.1232C1.89102 17.8256 2.97104 16.7834 4.38177 15.9934C5.78959 15.2051 7.30554 14.8076 8.93459 14.8076C10.3148 14.8076 11.6449 15.0986 12.9275 15.6824C14.2069 16.2648 15.3108 17.0937 16.2361 18.1668ZM18.9941 15.2275H22.1666V31.9768H18.9941V15.2275ZM46.1346 15.2275H49.3071V31.9768H46.1346V15.2275ZM52.9773 15.2275H56.1498V28.9442H60.8387V31.9768H52.9773V15.2275ZM64.3754 15.2275H67.5479V31.9768H64.3754V15.2275ZM76.7463 15.2275H79.9577L86.4039 31.9768H83.0875L81.7812 28.5243H74.9151L73.5776 31.9768H70.2612L76.7463 15.2275ZM78.3559 19.6792L76.0853 25.445H80.6148L78.3559 19.6792ZM89.2116 15.2275H92.2365L99.4525 26.2498V15.2275H102.625V31.9768H99.5769L92.3842 20.9895V31.9768H89.2116V15.2275ZM115.77 17.5058L113.406 19.5898C112.578 18.439 111.734 17.8635 110.875 17.8635C110.455 17.8635 110.112 17.9764 109.848 18.1979C109.58 18.423 109.448 18.6762 109.448 18.9561C109.448 19.236 109.54 19.5054 109.732 19.7531C109.991 20.0882 110.772 20.8058 112.076 21.9031C113.29 22.9244 114.032 23.5638 114.292 23.8277C114.937 24.4809 115.399 25.102 115.669 25.6978C115.939 26.2952 116.073 26.9458 116.073 27.6495C116.073 29.0258 115.598 30.1575 114.646 31.0553C113.698 31.9494 112.457 32.3967 110.925 32.3967C109.732 32.3967 108.693 32.1062 107.807 31.5218C106.92 30.9364 106.159 30.0173 105.529 28.7653L108.215 27.148C109.024 28.6253 109.953 29.3641 111.003 29.3641C111.551 29.3641 112.014 29.2044 112.387 28.8858C112.76 28.5672 112.947 28.1977 112.947 27.7817C112.947 27.4046 112.807 27.0235 112.523 26.6425C112.243 26.2658 111.621 25.6816 110.661 24.9007C108.834 23.4154 107.655 22.2684 107.123 21.4599C106.59 20.6515 106.322 19.8464 106.322 19.0416C106.322 17.8791 106.765 16.8836 107.648 16.0556C108.534 15.2239 109.627 14.8076 110.925 14.8076C111.761 14.8076 112.559 15.0015 113.312 15.3869C114.071 15.7747 114.887 16.4794 115.77 17.5058Z" fill="#003333"/>
<path fill-rule="evenodd" clip-rule="evenodd" d="M27.0598 17.3355H41.0092C39.3145 20.0129 37.6197 22.6903 35.925 25.3677C34.8825 24.6328 33.3011 24.7268 32.144 25.3677L27.0598 17.3355ZM43.464 15.2607L41.5219 15.2848H26.6539H24.7832V17.62L33.148 30.8364C33.8955 32.0327 34.387 31.7549 34.9424 30.8364L43.464 17.5056V15.2607Z" fill="#DC0000" stroke="#DC0000" stroke-width="0.0181144"/>
<path fill-rule="evenodd" clip-rule="evenodd" d="M40.5015 46.9128L35.9253 39.6832C34.8828 40.418 33.3014 40.324 32.1443 39.6832L27.568 46.9128H25.1113C27.7903 42.68 30.4693 38.4472 33.1483 34.2144C33.8958 33.0181 34.3872 33.2959 34.9427 34.2144L43.06 46.9128H40.5015Z" fill="#DC0000" stroke="#DC0000" stroke-width="0.0181144"/>
<path fill-rule="evenodd" clip-rule="evenodd" d="M26.0899 0.0290527H30.8737V1.5199H29.3834V12.4654H27.4438V1.5199H26.0899V0.0290527Z" fill="#003333"/>
<path fill-rule="evenodd" clip-rule="evenodd" d="M31.5684 0.0292969H33.5209V5.15788H34.6447V0.0292969H36.6836V12.4784H34.6447V6.62802H33.5209V12.4784H31.5684V0.0292969Z" fill="#003333"/>
<path fill-rule="evenodd" clip-rule="evenodd" d="M37.3983 0H41.5212V1.45051H39.1173V5.21051H41.5212V6.72565H39.1173V11.1286H41.5212V12.4655H37.3983V0Z" fill="#003333"/>
<path fill-rule="evenodd" clip-rule="evenodd" d="M31.8887 50.5215H54.8731H31.8887Z" fill="#DC0000"/>
<path d="M31.8887 50.5215H54.8731" stroke="#DC0000" stroke-width="0.651842"/>
<path fill-rule="evenodd" clip-rule="evenodd" d="M58.0491 48.3301L58.5106 49.8356L60.0852 49.8559L58.796 50.7601L59.2634 52.2639L58.005 51.3171L56.7192 52.2263L57.2308 50.737L55.9688 49.7951L57.5433 49.8214L58.0491 48.3301Z" fill="#DC0000" stroke="#DC0000" stroke-width="0.0181144"/>
<path fill-rule="evenodd" clip-rule="evenodd" d="M61.0039 50.5215H85.0377H61.0039Z" fill="#DC0000"/>
<path d="M61.0039 50.5215H85.0377" stroke="#DC0000" stroke-width="0.651842"/>
<path fill-rule="evenodd" clip-rule="evenodd" d="M37.9127 53.9586H39.1846V57.749C39.1846 58.0447 39.1232 58.3292 39.0005 58.6025C38.8778 58.8758 38.709 59.1157 38.4971 59.3221C38.2851 59.5284 38.0382 59.693 37.7552 59.8157C37.4734 59.9385 37.1695 59.9998 36.8459 59.9998C36.5279 59.9998 36.2253 59.9385 35.9408 59.8157C35.6549 59.693 35.4081 59.5284 35.1989 59.3221C34.9898 59.1157 34.8224 58.8758 34.6997 58.6025C34.577 58.3292 34.5156 58.0447 34.5156 57.749V53.9586H35.7874V57.498C35.7874 57.6654 35.8153 57.8229 35.8711 57.9708C35.9269 58.1186 36.0008 58.2497 36.0956 58.364C36.1905 58.4784 36.3034 58.569 36.4331 58.636C36.5642 58.7029 36.7009 58.7364 36.8459 58.7364C36.9965 58.7364 37.1346 58.7029 37.2629 58.636C37.3898 58.569 37.5028 58.4784 37.6004 58.364C37.6979 58.2497 37.7733 58.1186 37.8291 57.9708C37.8848 57.8229 37.9127 57.6654 37.9127 57.498V53.9586ZM42.3985 53.9586C42.6328 53.9586 42.8531 54.0047 43.0609 54.0967C43.2673 54.1887 43.4472 54.3143 43.6006 54.4732C43.7554 54.6322 43.8767 54.8191 43.966 55.0338C44.0552 55.2486 44.0998 55.4787 44.0998 55.7242C44.0998 55.9696 44.0552 56.1997 43.966 56.4144C43.8767 56.6292 43.7554 56.8175 43.602 56.9792C43.4486 57.141 43.2687 57.2679 43.0623 57.3599C42.8559 57.452 42.6355 57.498 42.4013 57.498H41.1043V59.8911H39.8325V53.9586H42.3985ZM42.2284 56.3433C42.3901 56.3433 42.5296 56.2833 42.6495 56.1634C42.7681 56.0435 42.828 55.8971 42.828 55.7242C42.828 55.5568 42.7681 55.4132 42.6495 55.2932C42.5296 55.1733 42.3901 55.1133 42.2284 55.1133H41.1043V56.3433H42.2284ZM48.2787 56.837C48.513 56.9765 48.6915 57.1549 48.8142 57.3725C48.9369 57.5901 48.9983 57.8411 48.9983 58.1255C48.9983 58.3933 48.9342 58.643 48.8059 58.8745C48.6775 59.106 48.4963 59.3109 48.262 59.4894C48.0501 59.6512 47.8087 59.7753 47.5382 59.8618C47.2677 59.9482 46.9818 59.9943 46.6806 59.9998C46.3793 59.9998 46.0921 59.958 45.8188 59.8743C45.5454 59.7906 45.3027 59.6651 45.0908 59.4978C44.7728 59.2579 44.5553 58.9679 44.4381 58.6276L45.6095 58.0837C45.6095 58.1395 45.6291 58.2092 45.6681 58.2929C45.7072 58.3766 45.7686 58.4575 45.8522 58.5355C45.9359 58.6136 46.0446 58.6806 46.1785 58.7364C46.3124 58.7922 46.4769 58.82 46.6722 58.82C46.8284 58.82 46.9665 58.8005 47.0864 58.7615C47.2063 58.7224 47.3067 58.6736 47.3876 58.6151C47.4685 58.5565 47.5298 58.4896 47.5717 58.4142C47.6135 58.3389 47.6345 58.2622 47.6345 58.1841C47.6345 58.0948 47.6051 58.0112 47.5466 57.9331C47.488 57.855 47.3974 57.7937 47.2746 57.749C47.0515 57.6709 46.8158 57.6054 46.5676 57.5524C46.3194 57.4994 46.0782 57.4325 45.8438 57.3516C45.6095 57.2707 45.392 57.1633 45.1912 57.0294C44.9904 56.8956 44.8314 56.7087 44.7143 56.4688C44.6083 56.2569 44.5553 56.0309 44.5553 55.7911C44.5553 55.5234 44.618 55.264 44.7435 55.0129C44.8691 54.7619 45.0406 54.5499 45.2581 54.377C45.4645 54.2153 45.696 54.0911 45.9526 54.0047C46.2092 53.9182 46.4798 53.875 46.7642 53.875C47.0488 53.875 47.3207 53.9168 47.5801 54.0005C47.8394 54.0841 48.0723 54.2069 48.2787 54.3687C48.4795 54.5192 48.6385 54.695 48.7556 54.8958L47.8018 55.5484C47.6847 55.3867 47.5382 55.257 47.3625 55.1593C47.1868 55.0617 46.9902 55.0129 46.7726 55.0129C46.4714 55.0129 46.2385 55.0799 46.074 55.2137C45.9094 55.3476 45.8271 55.5234 45.8271 55.7409C45.8271 55.8413 45.8731 55.9305 45.9652 56.0086C46.0572 56.0867 46.1772 56.1565 46.325 56.2178C46.4728 56.2792 46.6387 56.3336 46.8228 56.381C47.0069 56.4284 47.1896 56.4758 47.3709 56.5232C47.5522 56.5706 47.7237 56.6195 47.8855 56.6696C48.0472 56.7198 48.1783 56.7756 48.2787 56.837ZM52.374 58.7364C52.6417 58.7364 52.9039 58.675 53.1605 58.5523C53.4171 58.4296 53.6764 58.2232 53.9386 57.9331L54.7586 58.7112C54.4295 59.1352 54.0543 59.456 53.6332 59.6735C53.2121 59.8911 52.7784 59.9998 52.3321 59.9998C51.9305 59.9998 51.554 59.9175 51.2025 59.753C50.8511 59.5884 50.5457 59.3667 50.2863 59.0878C50.0269 58.8089 49.8233 58.4839 49.6755 58.113C49.5277 57.7421 49.4537 57.3474 49.4537 56.9291C49.4537 56.5107 49.5305 56.1174 49.6839 55.7492C49.8373 55.3811 50.0451 55.0575 50.3072 54.7786C50.5694 54.4997 50.879 54.2794 51.236 54.1176C51.593 53.9559 51.9723 53.875 52.374 53.875C52.7477 53.875 53.1033 53.9447 53.4408 54.0841C53.7783 54.2236 54.1087 54.4551 54.4323 54.7786L53.696 55.6739C53.4617 55.4564 53.24 55.31 53.0308 55.2346C52.8216 55.1593 52.6027 55.1217 52.374 55.1217C52.1452 55.1217 51.9291 55.1691 51.7255 55.264C51.5219 55.3588 51.3448 55.4871 51.1941 55.6489C51.0436 55.8106 50.925 56.0017 50.8386 56.222C50.7521 56.4424 50.7089 56.678 50.7089 56.9291C50.7089 57.1801 50.7521 57.4143 50.8386 57.6319C50.925 57.8495 51.0436 58.0405 51.1941 58.205C51.3448 58.3696 51.5219 58.4993 51.7255 58.5941C51.9291 58.689 52.1452 58.7364 52.374 58.7364ZM66.6125 53.9586H67.8105V59.8911H66.5386V55.9752L65.1246 57.9582H64.1121L62.6813 56.0338V59.8911H61.4095V53.9586H62.6157L64.6267 56.6948L66.6125 53.9586ZM71.0745 53.9586C71.3088 53.9586 71.5292 54.0047 71.737 54.0967C71.9434 54.1887 72.1232 54.3143 72.2766 54.4732C72.4315 54.6322 72.5528 54.8191 72.642 55.0338C72.7313 55.2486 72.7759 55.4787 72.7759 55.7242C72.7759 55.9696 72.7313 56.1997 72.642 56.4144C72.5528 56.6292 72.4315 56.8175 72.2781 56.9792C72.1247 57.141 71.9448 57.2679 71.7383 57.3599C71.532 57.452 71.3116 57.498 71.0773 57.498H69.7804V59.8911H68.5086V53.9586H71.0745ZM70.9044 56.3433C71.0662 56.3433 71.2057 56.2833 71.3255 56.1634C71.4441 56.0435 71.5041 55.8971 71.5041 55.7242C71.5041 55.5568 71.4441 55.4132 71.3255 55.2932C71.2057 55.1733 71.0662 55.1133 70.9044 55.1133H69.7804V56.3433H70.9044ZM76.9548 56.837C77.1891 56.9765 77.3676 57.1549 77.4903 57.3725C77.613 57.5901 77.6744 57.8411 77.6744 58.1255C77.6744 58.3933 77.6102 58.643 77.482 58.8745C77.3536 59.106 77.1724 59.3109 76.938 59.4894C76.7261 59.6512 76.4848 59.7753 76.2143 59.8618C75.9437 59.9482 75.6578 59.9943 75.3567 59.9998C75.0554 59.9998 74.7682 59.958 74.4948 59.8743C74.2215 59.7906 73.9788 59.6651 73.7669 59.4978C73.4489 59.2579 73.2314 58.9679 73.1142 58.6276L74.2856 58.0837C74.2856 58.1395 74.3051 58.2092 74.3442 58.2929C74.3833 58.3766 74.4446 58.4575 74.5283 58.5355C74.6119 58.6136 74.7207 58.6806 74.8546 58.7364C74.9885 58.7922 75.153 58.82 75.3483 58.82C75.5044 58.82 75.6425 58.8005 75.7625 58.7615C75.8824 58.7224 75.9828 58.6736 76.0637 58.6151C76.1445 58.5565 76.2059 58.4896 76.2477 58.4142C76.2896 58.3389 76.3105 58.2622 76.3105 58.1841C76.3105 58.0948 76.2812 58.0112 76.2226 57.9331C76.1641 57.855 76.0734 57.7937 75.9507 57.749C75.7276 57.6709 75.4919 57.6054 75.2437 57.5524C74.9955 57.4994 74.7542 57.4325 74.5199 57.3516C74.2856 57.2707 74.0681 57.1633 73.8673 57.0294C73.6664 56.8956 73.5075 56.7087 73.3903 56.4688C73.2843 56.2569 73.2314 56.0309 73.2314 55.7911C73.2314 55.5234 73.2941 55.264 73.4196 55.0129C73.5451 54.7619 73.7166 54.5499 73.9342 54.377C74.1406 54.2153 74.3721 54.0911 74.6287 54.0047C74.8853 53.9182 75.1558 53.875 75.4403 53.875C75.7248 53.875 75.9968 53.9168 76.2562 54.0005C76.5155 54.0841 76.7484 54.2069 76.9548 54.3687C77.1556 54.5192 77.3146 54.695 77.4317 54.8958L76.4778 55.5484C76.3607 55.3867 76.2143 55.257 76.0385 55.1593C75.8629 55.0617 75.6662 55.0129 75.4487 55.0129C75.1475 55.0129 74.9146 55.0799 74.75 55.2137C74.5854 55.3476 74.5032 55.5234 74.5032 55.7409C74.5032 55.8413 74.5492 55.9305 74.6413 56.0086C74.7333 56.0867 74.8532 56.1565 75.001 56.2178C75.1489 56.2792 75.3148 56.3336 75.4989 56.381C75.683 56.4284 75.8656 56.4758 76.0469 56.5232C76.2282 56.5706 76.3997 56.6195 76.5615 56.6696C76.7233 56.7198 76.8544 56.7756 76.9548 56.837ZM81.05 58.7364C81.3177 58.7364 81.5799 58.675 81.8365 58.5523C82.0932 58.4296 82.3525 58.2232 82.6147 57.9331L83.4347 58.7112C83.1056 59.1352 82.7304 59.456 82.3093 59.6735C81.8881 59.8911 81.4544 59.9998 81.0082 59.9998C80.6065 59.9998 80.23 59.9175 79.8786 59.753C79.5272 59.5884 79.2218 59.3667 78.9624 59.0878C78.703 58.8089 78.4994 58.4839 78.3515 58.113C78.2038 57.7421 78.1298 57.3474 78.1298 56.9291C78.1298 56.5107 78.2065 56.1174 78.3599 55.7492C78.5133 55.3811 78.7211 55.0575 78.9833 54.7786C79.2455 54.4997 79.5551 54.2794 79.9121 54.1176C80.2691 53.9559 80.6484 53.875 81.05 53.875C81.4237 53.875 81.7794 53.9447 82.1169 54.0841C82.4544 54.2236 82.7848 54.4551 83.1083 54.7786L82.3721 55.6739C82.1377 55.4564 81.9161 55.31 81.7068 55.2346C81.4976 55.1593 81.2787 55.1217 81.05 55.1217C80.8213 55.1217 80.6052 55.1691 80.4015 55.264C80.1979 55.3588 80.0208 55.4871 79.8702 55.6489C79.7196 55.8106 79.6011 56.0017 79.5146 56.222C79.4281 56.4424 79.3849 56.678 79.3849 56.9291C79.3849 57.1801 79.4281 57.4143 79.5146 57.6319C79.6011 57.8495 79.7196 58.0405 79.8702 58.205C80.0208 58.3696 80.1979 58.4993 80.4015 58.5941C80.6052 58.689 80.8213 58.7364 81.05 58.7364Z" fill="#1B1717"/>
<path fill-rule="evenodd" clip-rule="evenodd" d="M57.623 53.8779H58.4096V59.9342H57.623V53.8779Z" fill="#DC0000"/>
<path d="M117.406 12.8893V10.8807H116.641V10.5305H118.569V10.8807H117.799V12.8893H117.406ZM118.832 12.8893V10.5305H119.411L120.007 12.4147L120.583 10.5305H121.151V12.8893H120.792V10.9097L120.184 12.8893H119.828L119.194 10.8807V12.8893H118.832Z" fill="#1B1717"/>
</svg>
