<svg width="98" height="160" viewBox="0 0 98 160" fill="none" xmlns="http://www.w3.org/2000/svg">
<g opacity="0.2">
<path d="M3.08524 153.831C1.38087 153.831 0 155.212 0 156.916C0 158.619 1.38087 160 3.08524 160C4.78822 160 6.16908 158.619 6.16908 156.916C6.16908 155.212 4.78822 153.831 3.08524 153.831Z" fill="white"/>
<path d="M33.8503 153.831C32.1473 153.831 30.7664 155.212 30.7664 156.916C30.7664 158.619 32.1473 160 33.8503 160C35.5547 160 36.9341 158.619 36.9341 156.916C36.9341 155.212 35.5547 153.831 33.8503 153.831Z" fill="white"/>
<path d="M64.6166 153.831C62.9122 153.831 61.5314 155.212 61.5314 156.916C61.5314 158.619 62.9122 160 64.6166 160C66.3196 160 67.7005 158.619 67.7005 156.916C67.7005 155.212 66.3196 153.831 64.6166 153.831Z" fill="white"/>
<path d="M95.3816 153.831C93.6773 153.831 92.2978 155.212 92.2978 156.916C92.2978 158.619 93.6773 160 95.3816 160C97.086 160 98.4655 158.619 98.4655 156.916C98.4655 155.212 97.086 153.831 95.3816 153.831Z" fill="white"/>
<path d="M3.08524 123.065C1.38087 123.065 0 124.446 0 126.15C0 127.853 1.38087 129.234 3.08524 129.234C4.78822 129.234 6.16908 127.853 6.16908 126.15C6.16908 124.446 4.78822 123.065 3.08524 123.065Z" fill="white"/>
<path d="M33.8503 123.065C32.1473 123.065 30.7664 124.446 30.7664 126.15C30.7664 127.853 32.1473 129.234 33.8503 129.234C35.5547 129.234 36.9341 127.853 36.9341 126.15C36.9341 124.446 35.5547 123.065 33.8503 123.065Z" fill="white"/>
<path d="M64.6166 123.065C62.9122 123.065 61.5314 124.446 61.5314 126.15C61.5314 127.853 62.9122 129.234 64.6166 129.234C66.3196 129.234 67.7005 127.853 67.7005 126.15C67.7005 124.446 66.3196 123.065 64.6166 123.065Z" fill="white"/>
<path d="M95.3816 123.065C93.6773 123.065 92.2978 124.446 92.2978 126.15C92.2978 127.853 93.6773 129.234 95.3816 129.234C97.086 129.234 98.4655 127.853 98.4655 126.15C98.4655 124.446 97.086 123.065 95.3816 123.065Z" fill="white"/>
<path d="M3.08524 92.2984C1.38087 92.2984 0 93.6793 0 95.3823C0 97.0853 1.38087 98.4675 3.08524 98.4675C4.78822 98.4675 6.16908 97.0853 6.16908 95.3823C6.16908 93.6793 4.78822 92.2984 3.08524 92.2984Z" fill="white"/>
<path d="M33.8503 92.2984C32.1473 92.2984 30.7664 93.6793 30.7664 95.3823C30.7664 97.0853 32.1473 98.4675 33.8503 98.4675C35.5547 98.4675 36.9341 97.0853 36.9341 95.3823C36.9341 93.6793 35.5547 92.2984 33.8503 92.2984Z" fill="white"/>
<path d="M64.6166 92.2984C62.9122 92.2984 61.5314 93.6793 61.5314 95.3823C61.5314 97.0853 62.9122 98.4675 64.6166 98.4675C66.3196 98.4675 67.7005 97.0853 67.7005 95.3823C67.7005 93.6793 66.3196 92.2984 64.6166 92.2984Z" fill="white"/>
<path d="M95.3816 92.2984C93.6773 92.2984 92.2978 93.6793 92.2978 95.3823C92.2978 97.0853 93.6773 98.4675 95.3816 98.4675C97.086 98.4675 98.4655 97.0853 98.4655 95.3823C98.4655 93.6793 97.086 92.2984 95.3816 92.2984Z" fill="white"/>
<path d="M3.08524 61.5323C1.38087 61.5323 0 62.9132 0 64.6176C0 66.3205 1.38087 67.7014 3.08524 67.7014C4.78822 67.7014 6.16908 66.3205 6.16908 64.6176C6.16908 62.9132 4.78822 61.5323 3.08524 61.5323Z" fill="white"/>
<path d="M33.8503 61.5323C32.1473 61.5323 30.7664 62.9132 30.7664 64.6176C30.7664 66.3205 32.1473 67.7014 33.8503 67.7014C35.5547 67.7014 36.9341 66.3205 36.9341 64.6176C36.9341 62.9132 35.5547 61.5323 33.8503 61.5323Z" fill="white"/>
<path d="M64.6166 61.5323C62.9122 61.5323 61.5314 62.9132 61.5314 64.6176C61.5314 66.3205 62.9122 67.7014 64.6166 67.7014C66.3196 67.7014 67.7005 66.3205 67.7005 64.6176C67.7005 62.9132 66.3196 61.5323 64.6166 61.5323Z" fill="white"/>
<path d="M95.3816 61.5323C93.6773 61.5323 92.2978 62.9132 92.2978 64.6176C92.2978 66.3205 93.6773 67.7014 95.3816 67.7014C97.086 67.7014 98.4655 66.3205 98.4655 64.6176C98.4655 62.9132 97.086 61.5323 95.3816 61.5323Z" fill="white"/>
<path d="M3.08524 30.7662C1.38087 30.7662 0 32.1471 0 33.8515C0 35.5544 1.38087 36.9353 3.08524 36.9353C4.78822 36.9353 6.16908 35.5544 6.16908 33.8515C6.16908 32.1471 4.78822 30.7662 3.08524 30.7662Z" fill="white"/>
<path d="M33.8503 30.7662C32.1473 30.7662 30.7664 32.1471 30.7664 33.8515C30.7664 35.5544 32.1473 36.9353 33.8503 36.9353C35.5547 36.9353 36.9341 35.5544 36.9341 33.8515C36.9341 32.1471 35.5547 30.7662 33.8503 30.7662Z" fill="white"/>
<path d="M64.6166 30.7662C62.9122 30.7662 61.5314 32.1471 61.5314 33.8515C61.5314 35.5544 62.9122 36.9353 64.6166 36.9353C66.3196 36.9353 67.7005 35.5544 67.7005 33.8515C67.7005 32.1471 66.3196 30.7662 64.6166 30.7662Z" fill="white"/>
<path d="M95.3816 30.7662C93.6773 30.7662 92.2978 32.1471 92.2978 33.8515C92.2978 35.5544 93.6773 36.9353 95.3816 36.9353C97.086 36.9353 98.4655 35.5544 98.4655 33.8515C98.4655 32.1471 97.086 30.7662 95.3816 30.7662Z" fill="white"/>
<path d="M3.08524 -0.000139236C1.38087 -0.000139236 0 1.38073 0 3.0837C0 4.78668 1.38087 6.16895 3.08524 6.16895C4.78822 6.16895 6.16908 4.78668 6.16908 3.0837C6.16908 1.38073 4.78822 -0.000139236 3.08524 -0.000139236Z" fill="white"/>
<path d="M33.8503 -0.000139236C32.1473 -0.000139236 30.7664 1.38073 30.7664 3.0837C30.7664 4.78668 32.1473 6.16895 33.8503 6.16895C35.5547 6.16895 36.9341 4.78668 36.9341 3.0837C36.9341 1.38073 35.5547 -0.000139236 33.8503 -0.000139236Z" fill="white"/>
<path d="M64.6166 -0.000139236C62.9122 -0.000139236 61.5314 1.38073 61.5314 3.0837C61.5314 4.78668 62.9122 6.16895 64.6166 6.16895C66.3196 6.16895 67.7005 4.78668 67.7005 3.0837C67.7005 1.38073 66.3196 -0.000139236 64.6166 -0.000139236Z" fill="white"/>
<path d="M95.3816 -0.000139236C93.6773 -0.000139236 92.2978 1.38073 92.2978 3.0837C92.2978 4.78668 93.6773 6.16895 95.3816 6.16895C97.086 6.16895 98.4655 4.78668 98.4655 3.0837C98.4655 1.38073 97.086 -0.000139236 95.3816 -0.000139236Z" fill="white"/>
</g>
</svg>
